<svg aria-hidden="true" style="position: absolute; width: 0; height: 0; overflow: hidden;" version="1.1" xmlns="http://www.w3.org/2000/svg" xmlns:xlink="http://www.w3.org/1999/xlink">
<defs>
<symbol id="icon-heroicons-solid_menu" viewBox="0 0 32 32">
<path d="M4.799 8.001c0-0.424 0.169-0.831 0.469-1.131s0.707-0.469 1.131-0.469h19.2c0.424 0 0.831 0.169 1.131 0.469s0.469 0.707 0.469 1.131-0.169 0.831-0.469 1.131c-0.3 0.3-0.707 0.469-1.131 0.469h-19.2c-0.424 0-0.831-0.169-1.131-0.469s-0.469-0.707-0.469-1.131z"></path>
<path d="M4.799 16.001c0-0.424 0.169-0.831 0.469-1.131s0.707-0.469 1.131-0.469h19.2c0.424 0 0.831 0.169 1.131 0.469s0.469 0.707 0.469 1.131c0 0.424-0.169 0.831-0.469 1.131s-0.707 0.469-1.131 0.469h-19.2c-0.424 0-0.831-0.169-1.131-0.469s-0.469-0.707-0.469-1.131z"></path>
<path d="M4.799 24.001c0-0.424 0.169-0.831 0.469-1.131s0.707-0.469 1.131-0.469h19.2c0.424 0 0.831 0.169 1.131 0.469s0.469 0.707 0.469 1.131c0 0.424-0.169 0.831-0.469 1.131s-0.707 0.469-1.131 0.469h-19.2c-0.424 0-0.831-0.169-1.131-0.469s-0.469-0.707-0.469-1.131z"></path>
</symbol>
<symbol id="icon-Inputs" viewBox="0 0 34 32">
<path d="M0.719 0.235v0.813h-0.108l-0.409-0.627v0.627h-0.108v-0.813h0.108l0.411 0.628v-0.628h0.107zM1.296 0.944v-0.311c0-0.024-0.005-0.044-0.014-0.062s-0.023-0.032-0.042-0.041-0.042-0.014-0.070-0.014c-0.026 0-0.049 0.004-0.069 0.013s-0.035 0.021-0.046 0.035c-0.011 0.014-0.016 0.030-0.016 0.047h-0.103c0-0.022 0.006-0.043 0.017-0.064s0.027-0.040 0.048-0.057c0.021-0.018 0.046-0.031 0.076-0.041s0.063-0.016 0.099-0.016c0.044 0 0.083 0.007 0.116 0.022s0.060 0.037 0.079 0.068c0.019 0.030 0.029 0.067 0.029 0.112v0.281c0 0.020 0.002 0.041 0.005 0.064s0.009 0.042 0.016 0.059v0.009h-0.108c-0.005-0.012-0.009-0.028-0.012-0.047s-0.004-0.039-0.004-0.056zM1.314 0.682l0.001 0.073h-0.104c-0.029 0-0.056 0.002-0.079 0.007s-0.042 0.011-0.058 0.021-0.028 0.021-0.036 0.035c-0.008 0.014-0.012 0.030-0.012 0.049s0.004 0.036 0.013 0.052 0.021 0.028 0.038 0.037c0.018 0.009 0.039 0.013 0.064 0.013 0.032 0 0.060-0.007 0.084-0.020s0.043-0.030 0.057-0.049c0.014-0.019 0.022-0.038 0.023-0.056l0.044 0.050c-0.003 0.016-0.010 0.033-0.021 0.052s-0.027 0.037-0.046 0.055c-0.019 0.017-0.042 0.031-0.068 0.043s-0.055 0.017-0.088 0.017c-0.041 0-0.077-0.008-0.108-0.024s-0.054-0.037-0.071-0.064c-0.017-0.027-0.025-0.057-0.025-0.091 0-0.032 0.006-0.061 0.019-0.085s0.031-0.046 0.055-0.062c0.024-0.017 0.052-0.029 0.086-0.038s0.071-0.013 0.112-0.013h0.12zM1.71 0.564v0.484h-0.104v-0.604h0.098l0.006 0.12zM1.689 0.723l-0.048-0.002c0-0.041 0.006-0.079 0.016-0.114s0.026-0.066 0.046-0.092 0.046-0.046 0.076-0.060c0.030-0.015 0.066-0.022 0.106-0.022 0.028 0 0.054 0.004 0.078 0.012s0.044 0.020 0.062 0.037 0.031 0.039 0.041 0.066c0.010 0.027 0.014 0.059 0.014 0.097v0.402h-0.103v-0.397c0-0.032-0.005-0.057-0.016-0.076s-0.025-0.033-0.045-0.041c-0.019-0.009-0.042-0.013-0.068-0.013-0.030 0-0.056 0.005-0.076 0.016s-0.037 0.026-0.049 0.045c-0.012 0.019-0.021 0.041-0.027 0.065s-0.008 0.050-0.008 0.077zM2.080 0.666l-0.069 0.021c0-0.033 0.006-0.065 0.016-0.095s0.026-0.058 0.046-0.081c0.020-0.024 0.046-0.043 0.075-0.056s0.064-0.021 0.102-0.021c0.032 0 0.061 0.004 0.086 0.013s0.046 0.022 0.064 0.040c0.018 0.018 0.031 0.040 0.040 0.068s0.013 0.060 0.013 0.098v0.397h-0.104v-0.398c0-0.034-0.005-0.060-0.016-0.079s-0.025-0.032-0.045-0.040c-0.019-0.008-0.042-0.012-0.068-0.012-0.023 0-0.043 0.004-0.060 0.012s-0.032 0.019-0.044 0.032c-0.012 0.013-0.021 0.029-0.027 0.046s-0.009 0.036-0.009 0.056zM2.906 1.059c-0.042 0-0.080-0.007-0.114-0.021s-0.063-0.035-0.088-0.061c-0.024-0.026-0.043-0.057-0.056-0.093s-0.020-0.075-0.020-0.117v-0.023c0-0.049 0.007-0.093 0.022-0.131s0.034-0.071 0.059-0.098 0.053-0.047 0.085-0.061c0.032-0.014 0.064-0.021 0.098-0.021 0.043 0 0.080 0.007 0.112 0.022s0.057 0.036 0.078 0.062c0.020 0.026 0.035 0.058 0.045 0.094s0.014 0.075 0.014 0.117v0.046h-0.451v-0.084h0.348v-0.008c-0.002-0.027-0.007-0.053-0.017-0.078s-0.024-0.046-0.045-0.063-0.048-0.025-0.084-0.025c-0.023 0-0.045 0.005-0.065 0.015s-0.037 0.024-0.051 0.044-0.025 0.043-0.033 0.071c-0.008 0.028-0.012 0.060-0.012 0.097v0.023c0 0.029 0.004 0.056 0.012 0.081s0.020 0.047 0.035 0.066c0.016 0.019 0.034 0.034 0.056 0.045s0.048 0.016 0.076 0.016c0.036 0 0.067-0.007 0.093-0.022s0.047-0.035 0.066-0.060l0.063 0.050c-0.013 0.020-0.030 0.038-0.050 0.056s-0.045 0.032-0.074 0.044c-0.029 0.011-0.063 0.017-0.103 0.017z"></path>
<path d="M2.381 3.619c0.158 0 0.286-0.128 0.286-0.286s-0.128-0.286-0.286-0.286c-0.158 0-0.286 0.128-0.286 0.286s0.128 0.286 0.286 0.286zM2.381 3.762c-0.191 0-0.571 0.096-0.571 0.286v0.071c0 0.039 0.032 0.071 0.071 0.071h1c0.039 0 0.071-0.032 0.071-0.071v-0.071c0-0.19-0.381-0.286-0.571-0.286z"></path>
<path d="M0.394 7.015h-0.217v-0.088h0.217c0.042 0 0.076-0.007 0.102-0.020s0.045-0.032 0.057-0.056c0.012-0.024 0.018-0.051 0.018-0.081 0-0.028-0.006-0.054-0.018-0.079s-0.031-0.044-0.057-0.059c-0.026-0.015-0.060-0.023-0.102-0.023h-0.192v0.724h-0.108v-0.813h0.3c0.061 0 0.113 0.011 0.156 0.032s0.075 0.051 0.097 0.088c0.022 0.037 0.033 0.080 0.033 0.128 0 0.052-0.011 0.097-0.033 0.133s-0.054 0.065-0.097 0.084c-0.042 0.019-0.094 0.028-0.156 0.028zM0.949 6.476v0.857h-0.103v-0.857h0.103zM0.924 7.009l-0.043-0.002c0-0.041 0.006-0.079 0.018-0.114s0.029-0.066 0.050-0.092 0.047-0.046 0.077-0.060c0.030-0.014 0.063-0.022 0.1-0.022 0.030 0 0.057 0.004 0.080 0.012s0.044 0.020 0.061 0.038c0.017 0.018 0.030 0.040 0.039 0.068s0.013 0.061 0.013 0.101v0.396h-0.104v-0.397c0-0.032-0.005-0.057-0.014-0.076s-0.023-0.033-0.041-0.042c-0.018-0.009-0.040-0.013-0.066-0.013s-0.049 0.005-0.070 0.016c-0.021 0.011-0.039 0.026-0.054 0.045s-0.027 0.041-0.035 0.065c-0.008 0.024-0.012 0.050-0.012 0.077zM1.493 7.038v-0.013c0-0.044 0.006-0.084 0.019-0.121s0.031-0.070 0.055-0.098c0.024-0.028 0.053-0.050 0.087-0.065s0.072-0.023 0.114-0.023c0.042 0 0.081 0.008 0.114 0.023s0.063 0.037 0.087 0.065c0.024 0.028 0.043 0.060 0.055 0.098s0.019 0.078 0.019 0.121v0.013c0 0.044-0.006 0.084-0.019 0.121s-0.031 0.070-0.055 0.098c-0.024 0.028-0.053 0.049-0.087 0.065s-0.071 0.023-0.114 0.023-0.081-0.008-0.114-0.023c-0.034-0.016-0.063-0.037-0.087-0.065s-0.042-0.060-0.055-0.098-0.019-0.078-0.019-0.121zM1.596 7.025v0.013c0 0.030 0.004 0.059 0.011 0.085s0.018 0.050 0.032 0.070c0.014 0.020 0.033 0.037 0.054 0.049s0.047 0.017 0.075 0.017c0.028 0 0.053-0.006 0.074-0.017s0.039-0.028 0.054-0.049 0.025-0.044 0.032-0.070c0.007-0.027 0.011-0.055 0.011-0.085v-0.013c0-0.030-0.004-0.058-0.011-0.084s-0.018-0.050-0.032-0.071c-0.014-0.021-0.032-0.037-0.054-0.049s-0.046-0.018-0.075-0.018c-0.028 0-0.053 0.006-0.075 0.018s-0.039 0.028-0.054 0.049c-0.014 0.020-0.025 0.044-0.032 0.071s-0.011 0.054-0.011 0.084zM2.321 6.858v0.475h-0.103v-0.604h0.098l0.006 0.129zM2.297 7.009l-0.043-0.002c0-0.041 0.006-0.079 0.018-0.114s0.029-0.066 0.050-0.092 0.047-0.046 0.077-0.060c0.030-0.014 0.063-0.022 0.1-0.022 0.030 0 0.057 0.004 0.080 0.012s0.044 0.020 0.061 0.038c0.017 0.018 0.030 0.040 0.039 0.068s0.013 0.061 0.013 0.101v0.396h-0.104v-0.397c0-0.032-0.005-0.057-0.014-0.076s-0.023-0.033-0.041-0.042c-0.018-0.009-0.040-0.013-0.066-0.013s-0.049 0.005-0.070 0.016c-0.021 0.011-0.039 0.026-0.054 0.045s-0.027 0.041-0.035 0.065c-0.008 0.024-0.012 0.050-0.012 0.077zM3.146 7.345c-0.042 0-0.080-0.007-0.114-0.021s-0.063-0.035-0.088-0.061c-0.024-0.026-0.043-0.057-0.056-0.093s-0.020-0.075-0.020-0.117v-0.023c0-0.049 0.007-0.093 0.022-0.131s0.034-0.071 0.059-0.098 0.053-0.047 0.085-0.061c0.032-0.014 0.064-0.021 0.098-0.021 0.043 0 0.080 0.007 0.112 0.022s0.057 0.036 0.078 0.063c0.020 0.026 0.035 0.058 0.045 0.094s0.014 0.075 0.014 0.117v0.046h-0.451v-0.084h0.348v-0.008c-0.002-0.027-0.007-0.053-0.017-0.078s-0.024-0.046-0.045-0.063-0.048-0.025-0.084-0.025c-0.023 0-0.045 0.005-0.065 0.015s-0.037 0.024-0.051 0.044-0.025 0.043-0.033 0.071c-0.008 0.028-0.012 0.060-0.012 0.097v0.023c0 0.029 0.004 0.056 0.012 0.081s0.020 0.047 0.035 0.066c0.016 0.019 0.034 0.034 0.056 0.045s0.048 0.016 0.076 0.016c0.036 0 0.067-0.007 0.093-0.022s0.047-0.035 0.066-0.060l0.063 0.050c-0.013 0.020-0.030 0.038-0.050 0.056s-0.045 0.032-0.074 0.044c-0.029 0.011-0.063 0.017-0.103 0.017z"></path>
<path d="M2.926 10.082l-0.175-0.020c-0.042-0.005-0.083 0.010-0.113 0.039l-0.127 0.127c-0.195-0.099-0.355-0.258-0.454-0.454l0.127-0.128c0.030-0.030 0.044-0.071 0.039-0.113l-0.020-0.174c-0.008-0.070-0.067-0.122-0.137-0.122h-0.119c-0.078 0-0.143 0.065-0.138 0.143 0.037 0.589 0.507 1.059 1.095 1.095 0.078 0.005 0.143-0.060 0.143-0.138v-0.119c0.001-0.070-0.052-0.128-0.121-0.136z"></path>
<path d="M0.611 13.531v0.088h-0.43v-0.088h0.43zM0.202 12.807v0.812h-0.108v-0.812h0.108zM0.554 13.156v0.088h-0.373v-0.088h0.373zM0.605 12.807v0.088h-0.425v-0.088h0.425zM0.877 13.135v0.484h-0.104v-0.604h0.098l0.006 0.12zM0.855 13.294l-0.048-0.002c0-0.041 0.006-0.079 0.016-0.114s0.026-0.066 0.046-0.092c0.020-0.026 0.046-0.046 0.076-0.060s0.066-0.022 0.106-0.022c0.028 0 0.054 0.004 0.078 0.012s0.044 0.020 0.062 0.037c0.018 0.017 0.031 0.039 0.041 0.066s0.014 0.059 0.014 0.097v0.402h-0.103v-0.397c0-0.032-0.005-0.057-0.016-0.076s-0.025-0.033-0.045-0.041c-0.019-0.009-0.042-0.013-0.068-0.013-0.030 0-0.056 0.005-0.076 0.016s-0.037 0.026-0.049 0.045c-0.012 0.019-0.021 0.041-0.027 0.065s-0.008 0.050-0.008 0.077zM1.247 13.237l-0.069 0.021c0-0.033 0.006-0.065 0.016-0.095s0.026-0.058 0.046-0.082c0.020-0.024 0.046-0.043 0.075-0.056s0.064-0.021 0.102-0.021c0.032 0 0.061 0.004 0.086 0.013s0.046 0.022 0.064 0.040c0.018 0.017 0.031 0.040 0.040 0.068s0.013 0.060 0.013 0.098v0.397h-0.104v-0.398c0-0.034-0.005-0.060-0.016-0.079s-0.025-0.032-0.045-0.040c-0.019-0.008-0.042-0.012-0.068-0.012-0.023 0-0.043 0.004-0.060 0.012s-0.032 0.019-0.044 0.032c-0.012 0.013-0.021 0.029-0.027 0.046s-0.009 0.036-0.009 0.056zM2.178 13.516v-0.311c0-0.024-0.005-0.044-0.014-0.062s-0.023-0.032-0.042-0.041c-0.019-0.010-0.042-0.014-0.070-0.014-0.026 0-0.049 0.004-0.069 0.013s-0.035 0.021-0.046 0.035c-0.011 0.014-0.016 0.030-0.016 0.047h-0.103c0-0.022 0.006-0.043 0.017-0.064s0.027-0.040 0.048-0.057c0.021-0.018 0.046-0.031 0.076-0.041s0.063-0.016 0.099-0.016c0.044 0 0.083 0.007 0.116 0.022s0.060 0.037 0.079 0.068c0.019 0.030 0.029 0.067 0.029 0.112v0.281c0 0.020 0.002 0.042 0.005 0.064s0.009 0.042 0.016 0.059v0.009h-0.108c-0.005-0.012-0.009-0.028-0.012-0.047s-0.004-0.039-0.004-0.056zM2.196 13.253l0.001 0.073h-0.104c-0.029 0-0.056 0.002-0.079 0.007s-0.042 0.011-0.058 0.021-0.028 0.021-0.036 0.035c-0.008 0.014-0.012 0.030-0.012 0.049s0.004 0.036 0.013 0.052 0.021 0.028 0.038 0.037c0.018 0.009 0.039 0.013 0.064 0.013 0.032 0 0.060-0.007 0.084-0.020s0.043-0.030 0.057-0.049c0.014-0.019 0.022-0.038 0.023-0.056l0.044 0.050c-0.003 0.016-0.010 0.033-0.021 0.052s-0.027 0.037-0.046 0.055c-0.019 0.017-0.042 0.031-0.068 0.043s-0.055 0.017-0.088 0.017c-0.041 0-0.077-0.008-0.108-0.024s-0.054-0.037-0.071-0.064c-0.017-0.027-0.025-0.057-0.025-0.091 0-0.032 0.006-0.061 0.019-0.085s0.031-0.046 0.055-0.062c0.024-0.017 0.052-0.029 0.086-0.038s0.071-0.013 0.112-0.013h0.12zM2.601 13.015v0.604h-0.104v-0.604h0.104zM2.49 12.855c0-0.017 0.005-0.031 0.015-0.042s0.026-0.017 0.046-0.017c0.020 0 0.035 0.006 0.045 0.017s0.016 0.026 0.016 0.042c0 0.016-0.005 0.030-0.016 0.041s-0.026 0.017-0.045 0.017c-0.020 0-0.035-0.006-0.046-0.017s-0.015-0.025-0.015-0.041zM2.925 12.762v0.857h-0.104v-0.857h0.104z"></path>
<path d="M2.952 15.619h-1.143c-0.079 0-0.142 0.064-0.142 0.143l-0.001 0.857c0 0.079 0.064 0.143 0.143 0.143h1.143c0.079 0 0.143-0.064 0.143-0.143v-0.857c0-0.079-0.064-0.143-0.143-0.143zM2.924 15.923l-0.505 0.316c-0.023 0.014-0.053 0.014-0.076 0l-0.505-0.316c-0.018-0.011-0.029-0.031-0.029-0.051 0-0.048 0.052-0.076 0.093-0.051l0.479 0.299 0.479-0.299c0.041-0.025 0.093 0.004 0.093 0.051 0 0.021-0.011 0.040-0.029 0.051z"></path>
<path d="M1.918 21.568v0.812h-0.106v-0.812h0.106zM2.179 21.568v0.088h-0.628v-0.088h0.628zM2.525 22.392c-0.042 0-0.080-0.007-0.114-0.021s-0.063-0.035-0.088-0.061c-0.024-0.026-0.043-0.057-0.056-0.093s-0.020-0.075-0.020-0.117v-0.023c0-0.049 0.007-0.093 0.022-0.131s0.034-0.071 0.059-0.098c0.025-0.027 0.053-0.047 0.085-0.061s0.064-0.021 0.098-0.021c0.043 0 0.080 0.007 0.112 0.022s0.057 0.036 0.078 0.063c0.020 0.026 0.035 0.058 0.045 0.094s0.014 0.075 0.014 0.117v0.046h-0.451v-0.084h0.348v-0.008c-0.002-0.027-0.007-0.053-0.017-0.078s-0.024-0.046-0.045-0.063c-0.020-0.016-0.048-0.024-0.084-0.024-0.023 0-0.045 0.005-0.065 0.015s-0.037 0.024-0.051 0.044-0.025 0.043-0.033 0.071c-0.008 0.028-0.012 0.060-0.012 0.097v0.023c0 0.029 0.004 0.056 0.012 0.081s0.020 0.047 0.035 0.066c0.016 0.019 0.034 0.034 0.056 0.045s0.048 0.016 0.076 0.016c0.036 0 0.067-0.007 0.093-0.022s0.047-0.035 0.066-0.060l0.063 0.050c-0.013 0.020-0.030 0.038-0.050 0.056s-0.045 0.032-0.074 0.044c-0.029 0.011-0.063 0.017-0.103 0.017zM2.996 21.777l0.132 0.22 0.134-0.22h0.121l-0.198 0.298 0.204 0.306h-0.119l-0.139-0.227-0.139 0.227h-0.12l0.203-0.306-0.197-0.298h0.119zM3.792 21.777v0.079h-0.326v-0.079h0.326zM3.576 21.63h0.103v0.601c0 0.020 0.003 0.036 0.010 0.046s0.014 0.017 0.025 0.021c0.010 0.003 0.021 0.005 0.032 0.005 0.009 0 0.018-0.001 0.027-0.002s0.017-0.003 0.022-0.004l0.001 0.084c-0.008 0.003-0.019 0.005-0.032 0.007s-0.029 0.004-0.047 0.004c-0.025 0-0.049-0.005-0.070-0.015s-0.038-0.027-0.051-0.050c-0.012-0.024-0.018-0.056-0.018-0.096v-0.6zM4.4 21.777v0.604h-0.104v-0.604h0.104zM4.288 21.617c0-0.017 0.005-0.031 0.015-0.042s0.026-0.017 0.046-0.017c0.020 0 0.035 0.006 0.045 0.017s0.016 0.026 0.016 0.042c0 0.016-0.005 0.030-0.016 0.041s-0.026 0.017-0.045 0.017c-0.020 0-0.035-0.006-0.046-0.017s-0.015-0.025-0.015-0.041zM4.714 21.906v0.475h-0.103v-0.604h0.098l0.006 0.129zM4.69 22.056l-0.043-0.002c0-0.041 0.006-0.079 0.018-0.114s0.029-0.066 0.050-0.092c0.022-0.026 0.047-0.046 0.077-0.060s0.063-0.022 0.1-0.022c0.030 0 0.057 0.004 0.080 0.012s0.044 0.020 0.061 0.038c0.017 0.018 0.030 0.040 0.039 0.068s0.013 0.061 0.013 0.101v0.396h-0.104v-0.397c0-0.032-0.005-0.057-0.014-0.076s-0.023-0.033-0.041-0.042c-0.018-0.009-0.040-0.013-0.066-0.013s-0.049 0.005-0.070 0.016c-0.021 0.011-0.039 0.026-0.054 0.045s-0.027 0.041-0.035 0.065c-0.008 0.024-0.012 0.050-0.012 0.077zM5.392 21.893v0.72h-0.104v-0.836h0.095l0.009 0.116zM5.799 22.074v0.012c0 0.044-0.005 0.085-0.016 0.122s-0.026 0.070-0.046 0.097c-0.020 0.028-0.044 0.049-0.073 0.064s-0.062 0.023-0.1 0.023c-0.038 0-0.072-0.006-0.102-0.019s-0.054-0.031-0.075-0.055c-0.020-0.024-0.037-0.053-0.049-0.087s-0.020-0.072-0.025-0.114v-0.063c0.004-0.045 0.013-0.085 0.025-0.12s0.028-0.066 0.049-0.090c0.020-0.025 0.045-0.044 0.074-0.057s0.063-0.020 0.1-0.020 0.072 0.007 0.101 0.022c0.029 0.015 0.054 0.035 0.074 0.063s0.035 0.060 0.045 0.098c0.010 0.038 0.016 0.079 0.016 0.126zM5.695 22.086v-0.012c0-0.030-0.003-0.058-0.010-0.085s-0.016-0.050-0.030-0.070c-0.013-0.020-0.030-0.036-0.050-0.048s-0.045-0.018-0.073-0.018c-0.026 0-0.049 0.004-0.068 0.013s-0.035 0.021-0.049 0.036c-0.013 0.015-0.024 0.032-0.033 0.051s-0.014 0.039-0.018 0.059v0.144c0.007 0.026 0.018 0.051 0.031 0.074s0.031 0.041 0.054 0.055c0.022 0.014 0.050 0.021 0.084 0.021 0.028 0 0.052-0.006 0.072-0.017s0.037-0.028 0.050-0.049c0.013-0.020 0.023-0.044 0.030-0.070s0.010-0.055 0.010-0.085zM6.345 22.241v-0.464h0.104v0.604h-0.099l-0.005-0.14zM6.365 22.114l0.043-0.001c0 0.040-0.004 0.077-0.013 0.112s-0.022 0.063-0.040 0.088-0.043 0.044-0.073 0.059c-0.030 0.014-0.067 0.021-0.11 0.021-0.029 0-0.056-0.004-0.081-0.013s-0.045-0.022-0.063-0.040c-0.018-0.018-0.031-0.041-0.041-0.070s-0.014-0.063-0.014-0.103v-0.39h0.103v0.391c0 0.027 0.003 0.050 0.009 0.068s0.015 0.031 0.025 0.042c0.011 0.010 0.023 0.017 0.036 0.021s0.027 0.006 0.041 0.006c0.044 0 0.079-0.008 0.104-0.025s0.044-0.040 0.055-0.069c0.012-0.029 0.017-0.061 0.017-0.097zM6.905 21.777v0.079h-0.326v-0.079h0.326zM6.689 21.63h0.103v0.601c0 0.020 0.003 0.036 0.010 0.046s0.014 0.017 0.025 0.021c0.010 0.003 0.021 0.005 0.032 0.005 0.009 0 0.018-0.001 0.027-0.002s0.017-0.003 0.022-0.004l0.001 0.084c-0.008 0.003-0.019 0.005-0.032 0.007s-0.029 0.004-0.047 0.004c-0.025 0-0.049-0.005-0.070-0.015s-0.038-0.027-0.051-0.050c-0.012-0.024-0.018-0.056-0.018-0.096v-0.6z"></path>
<path d="M0.585 19.646h0.107c-0.006 0.051-0.020 0.097-0.044 0.138s-0.057 0.073-0.101 0.097c-0.044 0.023-0.098 0.035-0.163 0.035-0.048 0-0.091-0.009-0.13-0.027s-0.072-0.043-0.1-0.076c-0.028-0.033-0.049-0.073-0.065-0.119s-0.022-0.098-0.022-0.155v-0.081c0-0.057 0.007-0.108 0.022-0.155s0.037-0.086 0.065-0.119c0.029-0.033 0.063-0.059 0.103-0.076s0.085-0.027 0.136-0.027c0.061 0 0.113 0.012 0.156 0.035s0.075 0.055 0.099 0.096c0.024 0.040 0.038 0.088 0.044 0.141h-0.107c-0.005-0.038-0.015-0.070-0.029-0.098s-0.034-0.049-0.060-0.064c-0.026-0.015-0.060-0.022-0.102-0.022-0.036 0-0.068 0.007-0.095 0.021s-0.050 0.033-0.069 0.059c-0.018 0.025-0.032 0.056-0.041 0.091s-0.014 0.075-0.014 0.118v0.082c0 0.040 0.004 0.077 0.012 0.112s0.021 0.066 0.039 0.092c0.017 0.026 0.039 0.047 0.065 0.062s0.058 0.022 0.094 0.022c0.046 0 0.082-0.007 0.109-0.022s0.048-0.035 0.061-0.063c0.014-0.027 0.024-0.060 0.030-0.098zM0.841 19.61v-0.013c0-0.044 0.006-0.084 0.019-0.121s0.031-0.070 0.055-0.098c0.024-0.028 0.053-0.050 0.087-0.065s0.072-0.023 0.114-0.023c0.042 0 0.081 0.008 0.114 0.023s0.063 0.037 0.087 0.065c0.024 0.028 0.043 0.060 0.055 0.098s0.019 0.078 0.019 0.121v0.013c0 0.044-0.006 0.084-0.019 0.121s-0.031 0.070-0.055 0.098c-0.024 0.028-0.053 0.049-0.087 0.065s-0.071 0.023-0.114 0.023-0.081-0.008-0.114-0.023c-0.034-0.016-0.063-0.037-0.087-0.065s-0.042-0.060-0.055-0.098c-0.013-0.037-0.019-0.078-0.019-0.121zM0.945 19.597v0.013c0 0.030 0.004 0.059 0.011 0.085s0.018 0.050 0.032 0.070c0.014 0.020 0.033 0.037 0.054 0.049s0.047 0.017 0.075 0.017c0.028 0 0.053-0.006 0.074-0.017s0.039-0.028 0.054-0.049 0.025-0.044 0.032-0.070c0.007-0.027 0.011-0.055 0.011-0.085v-0.013c0-0.030-0.004-0.058-0.011-0.084s-0.018-0.050-0.032-0.071c-0.014-0.021-0.032-0.037-0.054-0.049s-0.046-0.018-0.075-0.018c-0.028 0-0.053 0.006-0.075 0.018s-0.039 0.028-0.054 0.049c-0.014 0.020-0.025 0.044-0.032 0.071s-0.011 0.054-0.011 0.084zM1.669 19.421v0.484h-0.104v-0.604h0.098l0.006 0.12zM1.648 19.58l-0.048-0.002c0-0.041 0.006-0.079 0.016-0.114s0.026-0.066 0.046-0.092c0.020-0.026 0.046-0.046 0.076-0.060s0.066-0.022 0.106-0.022c0.028 0 0.054 0.004 0.078 0.012s0.044 0.020 0.062 0.037c0.018 0.017 0.031 0.039 0.041 0.066s0.014 0.059 0.014 0.097v0.402h-0.103v-0.397c0-0.032-0.005-0.057-0.016-0.076s-0.025-0.033-0.045-0.041c-0.019-0.009-0.042-0.013-0.068-0.013-0.030 0-0.056 0.005-0.076 0.016s-0.037 0.026-0.049 0.045c-0.012 0.019-0.021 0.041-0.027 0.065s-0.008 0.050-0.008 0.077zM2.039 19.523l-0.069 0.021c0-0.033 0.006-0.065 0.016-0.095s0.026-0.058 0.046-0.082c0.020-0.024 0.046-0.043 0.075-0.056s0.064-0.021 0.102-0.021c0.032 0 0.061 0.004 0.086 0.013s0.046 0.022 0.064 0.040c0.018 0.017 0.031 0.040 0.040 0.068s0.013 0.060 0.013 0.098v0.397h-0.104v-0.398c0-0.034-0.005-0.060-0.016-0.079s-0.025-0.032-0.045-0.040c-0.019-0.008-0.042-0.012-0.068-0.012-0.023 0-0.043 0.004-0.060 0.012s-0.032 0.019-0.044 0.032c-0.012 0.013-0.021 0.029-0.027 0.046s-0.009 0.036-0.009 0.056zM2.717 19.421v0.484h-0.104v-0.604h0.098l0.006 0.12zM2.696 19.58l-0.048-0.002c0-0.041 0.006-0.079 0.016-0.114s0.026-0.066 0.046-0.092c0.020-0.026 0.046-0.046 0.076-0.060s0.066-0.022 0.106-0.022c0.028 0 0.054 0.004 0.078 0.012s0.044 0.020 0.062 0.037c0.018 0.017 0.031 0.039 0.041 0.066s0.014 0.059 0.014 0.097v0.402h-0.103v-0.397c0-0.032-0.005-0.057-0.016-0.076s-0.025-0.033-0.045-0.041c-0.019-0.009-0.042-0.013-0.068-0.013-0.030 0-0.056 0.005-0.076 0.016s-0.037 0.026-0.049 0.045c-0.012 0.019-0.021 0.041-0.027 0.065s-0.008 0.050-0.008 0.077zM3.087 19.523l-0.069 0.021c0-0.033 0.006-0.065 0.016-0.095s0.026-0.058 0.046-0.082c0.020-0.024 0.046-0.043 0.075-0.056s0.064-0.021 0.102-0.021c0.032 0 0.061 0.004 0.086 0.013s0.046 0.022 0.064 0.040c0.018 0.017 0.031 0.040 0.040 0.068s0.013 0.060 0.013 0.098v0.397h-0.104v-0.398c0-0.034-0.005-0.060-0.016-0.079s-0.025-0.032-0.045-0.040c-0.019-0.008-0.042-0.012-0.068-0.012-0.023 0-0.043 0.004-0.060 0.012s-0.032 0.019-0.044 0.032c-0.012 0.013-0.021 0.029-0.027 0.046s-0.009 0.036-0.009 0.056zM3.913 19.916c-0.042 0-0.080-0.007-0.114-0.021s-0.063-0.035-0.088-0.061c-0.024-0.026-0.043-0.057-0.056-0.093s-0.020-0.075-0.020-0.117v-0.023c0-0.049 0.007-0.093 0.022-0.131s0.034-0.071 0.059-0.098c0.025-0.027 0.053-0.047 0.085-0.061s0.064-0.021 0.098-0.021c0.043 0 0.080 0.007 0.112 0.022s0.057 0.036 0.078 0.063c0.020 0.026 0.035 0.058 0.045 0.094s0.014 0.075 0.014 0.117v0.046h-0.451v-0.084h0.348v-0.008c-0.002-0.027-0.007-0.053-0.017-0.078s-0.024-0.046-0.045-0.063c-0.020-0.016-0.048-0.024-0.084-0.024-0.023 0-0.045 0.005-0.065 0.015s-0.037 0.024-0.051 0.044-0.025 0.043-0.033 0.071c-0.008 0.028-0.012 0.060-0.012 0.097v0.023c0 0.029 0.004 0.056 0.012 0.081s0.020 0.047 0.035 0.066c0.016 0.019 0.034 0.034 0.056 0.045s0.048 0.016 0.076 0.016c0.036 0 0.067-0.007 0.093-0.022s0.047-0.035 0.066-0.060l0.063 0.050c-0.013 0.020-0.030 0.038-0.050 0.056s-0.045 0.032-0.074 0.044c-0.029 0.011-0.063 0.017-0.103 0.017zM4.417 19.43v0.475h-0.103v-0.604h0.098l0.006 0.129zM4.393 19.58l-0.043-0.002c0-0.041 0.006-0.079 0.018-0.114s0.029-0.066 0.050-0.092c0.022-0.026 0.047-0.046 0.077-0.060s0.063-0.022 0.1-0.022c0.030 0 0.057 0.004 0.080 0.012s0.044 0.020 0.061 0.038c0.017 0.018 0.030 0.040 0.039 0.068s0.013 0.061 0.013 0.101v0.396h-0.104v-0.397c0-0.032-0.005-0.057-0.014-0.076s-0.023-0.033-0.041-0.042c-0.018-0.009-0.040-0.013-0.066-0.013s-0.049 0.005-0.070 0.016c-0.021 0.011-0.039 0.026-0.054 0.045s-0.027 0.041-0.035 0.065c-0.008 0.024-0.012 0.050-0.012 0.077zM5.244 19.301v0.079h-0.326v-0.079h0.326zM5.028 19.154h0.103v0.601c0 0.020 0.003 0.036 0.010 0.046s0.014 0.017 0.025 0.021c0.010 0.003 0.021 0.005 0.032 0.005 0.009 0 0.018-0.001 0.027-0.002s0.017-0.003 0.022-0.004l0.001 0.084c-0.008 0.003-0.019 0.005-0.032 0.007s-0.029 0.004-0.047 0.004c-0.025 0-0.049-0.005-0.070-0.015s-0.038-0.027-0.051-0.050c-0.012-0.024-0.018-0.056-0.018-0.096v-0.6z"></path>
</symbol>
<symbol id="icon-Vector" viewBox="0 0 40 32">
<path d="M33.782 1.020c0.691-0.662 1.611-1.027 2.565-1.020s1.869 0.387 2.55 1.059c0.681 0.672 1.076 1.584 1.101 2.543s-0.321 1.891-0.966 2.598l-19.578 24.617c-0.337 0.365-0.743 0.657-1.195 0.86s-0.939 0.312-1.434 0.322c-0.495 0.009-0.986-0.082-1.445-0.268s-0.876-0.463-1.226-0.815l-12.984-13.054c-0.362-0.339-0.652-0.747-0.853-1.201s-0.309-0.944-0.318-1.441 0.082-0.99 0.267-1.451c0.185-0.461 0.461-0.879 0.81-1.231s0.766-0.628 1.224-0.814 0.949-0.277 1.443-0.269c0.494 0.009 0.981 0.118 1.433 0.32s0.858 0.494 1.195 0.857l10.275 10.325 17.042-21.83c0.031-0.038 0.063-0.074 0.098-0.109h-0.005z"></path>
</symbol>
<symbol id="icon-icon-close" viewBox="0 0 32 32">
<path d="M32 3.223l-3.223-3.223-12.777 12.777-12.777-12.777-3.223 3.223 12.777 12.777-12.777 12.777 3.223 3.223 12.777-12.777 12.777 12.777 3.223-3.223-12.777-12.777 12.777-12.777z"></path>
</symbol>
<symbol id="icon-icon-send" viewBox="0 0 38 32">
<path d="M38.4 0l-38.4 18 12.272 3.788 18.928-14.788-14.397 16.186 0.012 0.004-0.014-0.004v8.814l6.882-6.691 8.718 2.691 6-28z"></path>
</symbol>
<symbol id="icon-icon-name" viewBox="0 0 32 32">
<path d="M16 16c2.947 0 5.333-2.387 5.333-5.333s-2.387-5.333-5.333-5.333c-2.947 0-5.333 2.387-5.333 5.333s2.387 5.333 5.333 5.333zM16 18.667c-3.56 0-10.667 1.787-10.667 5.333v1.333c0 0.733 0.6 1.333 1.333 1.333h18.667c0.733 0 1.333-0.6 1.333-1.333v-1.333c0-3.547-7.107-5.333-10.667-5.333z"></path>
</symbol>
<symbol id="icon-Frame-1" viewBox="0 0 32 32">
<path d="M12 16c2.21 0 4-1.79 4-4s-1.79-4-4-4c-2.21 0-4 1.79-4 4s1.79 4 4 4zM12 18c-2.67 0-8 1.34-8 4v1c0 0.55 0.45 1 1 1h14c0.55 0 1-0.45 1-1v-1c0-2.66-5.33-4-8-4z"></path>
<path stroke-linejoin="miter" stroke-linecap="round" stroke-miterlimit="4" stroke-width="1.6667" d="M30.167 4.833v22.333"></path>
</symbol>
<symbol id="icon-icon-tel" viewBox="0 0 24 32">
<path d="M19.635 18.487l-2.451-0.28c-0.589-0.067-1.167 0.135-1.582 0.55l-1.775 1.775c-2.731-1.389-4.969-3.618-6.359-6.359l1.785-1.785c0.415-0.415 0.618-0.994 0.55-1.582l-0.28-2.432c-0.116-0.975-0.936-1.708-1.92-1.708h-1.669c-1.090 0-1.997 0.907-1.93 1.997 0.511 8.24 7.102 14.821 15.332 15.332 1.090 0.068 1.997-0.839 1.997-1.93v-1.669c0.010-0.975-0.724-1.795-1.698-1.911z"></path>
</symbol>
<symbol id="icon-icon-email" viewBox="0 0 24 32">
<path d="M20 8h-16c-1.1 0-1.99 0.9-1.99 2l-0.010 12c0 1.1 0.9 2 2 2h16c1.1 0 2-0.9 2-2v-12c0-1.1-0.9-2-2-2zM19.6 12.25l-7.070 4.42c-0.32 0.2-0.74 0.2-1.060 0l-7.070-4.42c-0.25-0.16-0.4-0.43-0.4-0.72 0-0.67 0.73-1.070 1.3-0.72l6.7 4.19 6.7-4.19c0.57-0.35 1.3 0.050 1.3 0.72 0 0.29-0.15 0.56-0.4 0.72z"></path>
</symbol>
<symbol id="icon-checkbox1" viewBox="0 0 720 32">
<path fill="none" stroke="#2e2f42" style="stroke: var(--color1, #2e2f42)" stroke-linejoin="miter" stroke-linecap="butt" stroke-miterlimit="4" stroke-width="2" d="M4 1h24c1.657 0 3 1.343 3 3v24c0 1.657-1.343 3-3 3h-24c-1.657 0-3-1.343-3-3v-24c0-1.657 1.343-3 3-3z"></path>
</symbol>
<symbol id="icon-linkedin" viewBox="0 0 32 32">
<path d="M31.992 32v-0.001h0.008v-11.736c0-5.741-1.236-10.164-7.948-10.164-3.227 0-5.392 1.771-6.276 3.449h-0.093v-2.913h-6.364v21.364h6.627v-10.579c0-2.785 0.528-5.479 3.977-5.479 3.399 0 3.449 3.179 3.449 5.657v10.401h6.62z"></path>
<path d="M0.528 10.636h6.635v21.364h-6.635v-21.364z"></path>
<path d="M3.843-0c-2.121 0-3.843 1.721-3.843 3.843s1.721 3.879 3.843 3.879c2.121 0 3.843-1.757 3.843-3.879-0.001-2.121-1.723-3.843-3.843-3.843v0z"></path>
</symbol>
<symbol id="icon-facebook" viewBox="0 0 32 32">
<path d="M21.329 5.313h2.921v-5.088c-0.504-0.069-2.237-0.225-4.256-0.225-4.212 0-7.097 2.649-7.097 7.519v4.481h-4.648v5.688h4.648v14.312h5.699v-14.311h4.46l0.708-5.688h-5.169v-3.919c0.001-1.644 0.444-2.769 2.735-2.769z"></path>
</symbol>
<symbol id="icon-twitter" viewBox="0 0 32 32">
<path d="M32 6.078c-1.19 0.522-2.458 0.868-3.78 1.036 1.36-0.812 2.398-2.088 2.886-3.626-1.268 0.756-2.668 1.29-4.16 1.588-1.204-1.282-2.92-2.076-4.792-2.076-3.632 0-6.556 2.948-6.556 6.562 0 0.52 0.044 1.020 0.152 1.496-5.454-0.266-10.28-2.88-13.522-6.862-0.566 0.982-0.898 2.106-0.898 3.316 0 2.272 1.17 4.286 2.914 5.452-1.054-0.020-2.088-0.326-2.964-0.808 0 0.020 0 0.046 0 0.072 0 3.188 2.274 5.836 5.256 6.446-0.534 0.146-1.116 0.216-1.72 0.216-0.42 0-0.844-0.024-1.242-0.112 0.85 2.598 3.262 4.508 6.13 4.57-2.232 1.746-5.066 2.798-8.134 2.798-0.538 0-1.054-0.024-1.57-0.090 2.906 1.874 6.35 2.944 10.064 2.944 12.072 0 18.672-10 18.672-18.668 0-0.29-0.010-0.57-0.024-0.848 1.302-0.924 2.396-2.078 3.288-3.406z"></path>
</symbol>
<symbol id="icon-instagram" viewBox="0 0 32 32">
<path d="M31.969 9.408c-0.075-1.7-0.35-2.869-0.744-3.882-0.406-1.075-1.031-2.038-1.85-2.838-0.8-0.813-1.769-1.444-2.832-1.844-1.019-0.394-2.182-0.669-3.882-0.744-1.713-0.081-2.257-0.1-6.601-0.1s-4.888 0.019-6.595 0.094c-1.7 0.075-2.869 0.35-3.882 0.744-1.075 0.406-2.038 1.031-2.838 1.85-0.813 0.8-1.444 1.769-1.844 2.832-0.394 1.019-0.669 2.182-0.744 3.882-0.081 1.713-0.1 2.257-0.1 6.601s0.019 4.888 0.094 6.595c0.075 1.7 0.35 2.869 0.744 3.882 0.406 1.075 1.038 2.038 1.85 2.838 0.8 0.813 1.769 1.444 2.832 1.844 1.019 0.394 2.182 0.669 3.882 0.744 1.706 0.075 2.25 0.094 6.595 0.094s4.888-0.019 6.595-0.094c1.7-0.075 2.869-0.35 3.882-0.744 2.151-0.831 3.851-2.532 4.682-4.682 0.394-1.019 0.669-2.182 0.744-3.882 0.075-1.707 0.094-2.25 0.094-6.595s-0.006-4.888-0.081-6.595zM29.087 22.473c-0.069 1.563-0.331 2.407-0.55 2.969-0.538 1.394-1.644 2.5-3.038 3.038-0.563 0.219-1.413 0.481-2.969 0.55-1.688 0.075-2.194 0.094-6.464 0.094s-4.782-0.019-6.464-0.094c-1.563-0.069-2.407-0.331-2.969-0.55-0.694-0.256-1.325-0.663-1.838-1.194-0.531-0.519-0.938-1.144-1.194-1.838-0.219-0.563-0.481-1.413-0.55-2.969-0.075-1.688-0.094-2.194-0.094-6.464s0.019-4.782 0.094-6.464c0.069-1.563 0.331-2.407 0.55-2.969 0.256-0.694 0.663-1.325 1.2-1.838 0.519-0.531 1.144-0.938 1.838-1.194 0.563-0.219 1.413-0.481 2.969-0.55 1.688-0.075 2.194-0.094 6.464-0.094 4.276 0 4.782 0.019 6.464 0.094 1.563 0.069 2.407 0.331 2.969 0.55 0.694 0.256 1.325 0.662 1.838 1.194 0.531 0.519 0.938 1.144 1.194 1.838 0.219 0.563 0.481 1.413 0.55 2.969 0.075 1.688 0.094 2.194 0.094 6.464s-0.019 4.77-0.094 6.458z"></path>
<path d="M16.059 7.783c-4.538 0-8.22 3.682-8.22 8.22s3.682 8.22 8.22 8.22c4.538 0 8.22-3.682 8.22-8.22s-3.682-8.22-8.22-8.22zM16.059 21.335c-2.944 0-5.332-2.388-5.332-5.332s2.388-5.332 5.332-5.332c2.944 0 5.332 2.388 5.332 5.332s-2.388 5.332-5.332 5.332z"></path>
<path d="M26.524 7.458c0 1.060-0.859 1.919-1.919 1.919s-1.919-0.859-1.919-1.919c0-1.060 0.859-1.919 1.919-1.919s1.919 0.859 1.919 1.919z"></path>
</symbol>
<symbol id="icon-astronaut" viewBox="0 0 32 32">
<path fill="#4d5ae5" style="fill: var(--color3, #4d5ae5)" d="M31.974 4.524c-0.063-0.193-0.229-0.333-0.43-0.363l-1.91-0.278-0.855-1.731c-0.179-0.365-0.777-0.365-0.956 0l-0.855 1.731-1.91 0.278c-0.201 0.029-0.367 0.17-0.431 0.363-0.062 0.193-0.011 0.405 0.135 0.547l1.383 1.348-0.326 1.903c-0.034 0.2 0.048 0.402 0.212 0.522 0.166 0.121 0.382 0.135 0.562 0.040l1.709-0.899 1.709 0.899c0.078 0.041 0.164 0.061 0.249 0.061 0.11 0 0.221-0.034 0.314-0.102 0.164-0.119 0.246-0.322 0.212-0.522l-0.326-1.903 1.383-1.348c0.145-0.142 0.197-0.354 0.135-0.547zM29.511 5.851c-0.125 0.122-0.183 0.299-0.153 0.472l0.191 1.114-1-0.526c-0.078-0.041-0.163-0.061-0.249-0.061s-0.17 0.020-0.249 0.061l-1.001 0.526 0.191-1.114c0.030-0.173-0.028-0.349-0.153-0.472l-0.81-0.789 1.119-0.163c0.174-0.025 0.324-0.134 0.402-0.292l0.5-1.013 0.5 1.013c0.078 0.157 0.228 0.267 0.402 0.292l1.119 0.163-0.809 0.789z"></path>
<path fill="#4d5ae5" style="fill: var(--color3, #4d5ae5)" d="M26.133 20.522h-1.067v1.067h1.067v-1.067z"></path>
<path fill="#4d5ae5" style="fill: var(--color3, #4d5ae5)" d="M26.133 22.656h-1.067v1.067h1.067v-1.067z"></path>
<path fill="#4d5ae5" style="fill: var(--color3, #4d5ae5)" d="M27.2 21.589h-1.067v1.067h1.067v-1.067z"></path>
<path fill="#4d5ae5" style="fill: var(--color3, #4d5ae5)" d="M25.067 21.589h-1.067v1.067h1.067v-1.067z"></path>
<path fill="#4d5ae5" style="fill: var(--color3, #4d5ae5)" d="M22.4 26.389h-1.067v1.067h1.067v-1.067z"></path>
<path fill="#4d5ae5" style="fill: var(--color3, #4d5ae5)" d="M22.4 28.522h-1.067v1.067h1.067v-1.067z"></path>
<path fill="#4d5ae5" style="fill: var(--color3, #4d5ae5)" d="M23.467 27.456h-1.067v1.067h1.067v-1.067z"></path>
<path fill="#4d5ae5" style="fill: var(--color3, #4d5ae5)" d="M21.333 27.456h-1.067v1.067h1.067v-1.067z"></path>
<path fill="#4d5ae5" style="fill: var(--color3, #4d5ae5)" d="M16 24.256h-1.067v1.067h1.067v-1.067z"></path>
<path fill="#4d5ae5" style="fill: var(--color3, #4d5ae5)" d="M16 26.389h-1.067v1.067h1.067v-1.067z"></path>
<path fill="#4d5ae5" style="fill: var(--color3, #4d5ae5)" d="M17.067 25.322h-1.067v1.067h1.067v-1.067z"></path>
<path fill="#4d5ae5" style="fill: var(--color3, #4d5ae5)" d="M14.933 25.322h-1.067v1.067h1.067v-1.067z"></path>
<path fill="#4d5ae5" style="fill: var(--color3, #4d5ae5)" d="M5.867 6.122h-1.067v1.067h1.067v-1.067z"></path>
<path fill="#4d5ae5" style="fill: var(--color3, #4d5ae5)" d="M5.867 8.255h-1.067v1.067h1.067v-1.067z"></path>
<path fill="#4d5ae5" style="fill: var(--color3, #4d5ae5)" d="M6.933 7.189h-1.067v1.067h1.067v-1.067z"></path>
<path fill="#4d5ae5" style="fill: var(--color3, #4d5ae5)" d="M4.8 7.189h-1.067v1.067h1.067v-1.067z"></path>
<path fill="#2e2f42" style="fill: var(--color1, #2e2f42)" d="M24.715 14.159c-0.287-0.388-0.709-0.637-1.188-0.705-0.481-0.068-0.956 0.058-1.34 0.352l-1.252 0.96-1.898 1.417-1.358-0.541c2.421-1.086 4.114-3.508 4.114-6.32 0-3.823-3.123-6.933-6.961-6.933s-6.961 3.11-6.961 6.933c0 1.386 0.414 2.674 1.12 3.758l-2.764-0.024c-0.002 0-0.003 0-0.005 0-0.009 0-0.015 0.004-0.023 0.005-0.053 0.002-0.105 0.013-0.155 0.031-0.013 0.005-0.026 0.008-0.038 0.013-0.006 0.003-0.013 0.003-0.019 0.006l-3.233 1.596c-0.001 0-0.001 0-0.001 0.001l-1.893 0.911c-0.021 0.009-0.042 0.021-0.063 0.035-0.755 0.502-1.012 1.489-0.598 2.295 0.22 0.429 0.595 0.745 1.056 0.889 0.178 0.055 0.359 0.083 0.539 0.083 0.29 0 0.577-0.071 0.839-0.211l1.388-0.738 2.264-1.169 1.357-0.008-5.442 5.416c-0.001 0.001-0.001 0.001-0.002 0.001l-1.339 1.333c-0.316 0.315-0.49 0.732-0.49 1.178s0.174 0.863 0.49 1.179c0.325 0.323 0.752 0.485 1.179 0.485s0.854-0.162 1.18-0.485l1.314-1.309 1.741-1.3 0.901 0.897-1.762 1.754c-0 0.001-0.001 0.001-0.002 0.001l-1.339 1.333c-0.316 0.315-0.49 0.732-0.49 1.178s0.174 0.863 0.49 1.179c0.325 0.323 0.753 0.485 1.18 0.485s0.855-0.162 1.18-0.485l3.482-3.467c0.001-0.001 0.001-0.001 0.001-0.002l1.010-1-0.004-0.004c0.006-0.006 0.015-0.009 0.022-0.015l5.166-5.658 3.471 0.494c0.025 0.004 0.050 0.005 0.075 0.005 0.065 0 0.127-0.015 0.187-0.038 0.018-0.006 0.033-0.015 0.050-0.023 0.019-0.010 0.039-0.015 0.058-0.027l3.213-2.133c0.012-0.008 0.018-0.021 0.029-0.029 0.013-0.010 0.029-0.014 0.041-0.026l1.271-1.191c0.662-0.62 0.753-1.635 0.212-2.362zM2.13 17.77c-0.173 0.093-0.37 0.111-0.558 0.052-0.187-0.058-0.338-0.186-0.427-0.358-0.161-0.314-0.068-0.695 0.214-0.902l1.314-0.632 0.449 1.313-0.992 0.527zM5.628 15.942l-1.548 0.8-0.439-1.283 2.027-1.001-0.040 1.484zM20.727 9.322c0 0.918-0.219 1.785-0.599 2.559l-4.181-1.899c-0.044-0.573-0.341-1.075-0.788-1.388l1.464-4.86c2.378 0.756 4.105 2.974 4.105 5.588zM8.938 9.322c0-3.235 2.644-5.867 5.894-5.867 0.253 0 0.5 0.021 0.745 0.052l-1.432 4.754c-0.019-0.001-0.037-0.006-0.057-0.006-1.033 0-1.873 0.837-1.873 1.867s0.84 1.867 1.873 1.867c0.694 0 1.294-0.383 1.618-0.945l3.862 1.755c-1.075 1.446-2.795 2.39-4.737 2.39-3.25 0-5.894-2.632-5.894-5.867zM14.894 10.122c0 0.441-0.362 0.8-0.806 0.8s-0.806-0.359-0.806-0.8c0-0.441 0.362-0.8 0.806-0.8s0.806 0.359 0.806 0.8zM2.465 25.146c-0.236 0.234-0.619 0.234-0.854 0.001-0.114-0.114-0.176-0.263-0.176-0.423s0.062-0.309 0.176-0.421l0.962-0.958 0.851 0.848-0.959 0.955zM5.679 28.88c-0.236 0.234-0.619 0.235-0.855 0.001-0.114-0.114-0.176-0.263-0.176-0.423s0.062-0.309 0.176-0.421l0.963-0.959 0.852 0.848-0.96 0.955zM9.16 25.411c-0.001 0-0.001 0-0.002 0.001l-1.765 1.76-0.852-0.848 1.763-1.755c0 0 0 0 0-0s0.001-0.001 0.002-0.001c0.040-0.040 0.065-0.088 0.090-0.135 0.007-0.014 0.020-0.026 0.026-0.040 0.017-0.041 0.019-0.085 0.026-0.129 0.003-0.025 0.014-0.047 0.014-0.073 0-0.036-0.013-0.070-0.020-0.106-0.006-0.032-0.006-0.065-0.019-0.095-0.020-0.050-0.055-0.094-0.091-0.138-0.010-0.012-0.014-0.027-0.025-0.038 0 0 0 0-0.001 0s-0.001-0.002-0.001-0.002l-1.607-1.6c-0.017-0.017-0.039-0.024-0.058-0.038-0.028-0.022-0.055-0.042-0.087-0.058-0.030-0.015-0.061-0.024-0.093-0.033-0.034-0.010-0.067-0.017-0.103-0.020-0.033-0.002-0.063 0.001-0.095 0.005-0.036 0.004-0.069 0.009-0.104 0.020-0.034 0.011-0.063 0.027-0.094 0.045-0.020 0.011-0.042 0.015-0.061 0.029l-1.773 1.324-0.901-0.897 2.399-2.386 4.361 4.289-0.928 0.919zM15.979 18.394c-0.015-0.002-0.030 0.004-0.045 0.003-0.039-0.002-0.076 0.001-0.115 0.007-0.030 0.005-0.059 0.011-0.088 0.021-0.034 0.012-0.065 0.028-0.097 0.047-0.030 0.018-0.057 0.037-0.083 0.061-0.013 0.011-0.028 0.017-0.040 0.029l-4.698 5.146-4.328-4.257 2.833-2.818c0.209-0.208 0.21-0.546 0.002-0.755-0.105-0.105-0.243-0.157-0.381-0.156v-0.001l-2.219 0.013 0.028-1.607 3.104 0.027c1.265 1.294 3.029 2.101 4.981 2.101 0.437 0 0.864-0.045 1.279-0.123 0.040 0.032 0.079 0.065 0.13 0.085l2.41 0.96 0.152 0.758 0.178 0.885-3.003-0.427zM20.020 18.572l-0.313-1.558 1.446-1.080 0.947 1.257-2.080 1.381zM23.774 15.741l-0.838 0.785-0.931-1.236 0.831-0.637c0.155-0.119 0.351-0.168 0.543-0.143 0.193 0.027 0.364 0.128 0.48 0.284 0.217 0.292 0.18 0.699-0.085 0.947z"></path>
<path fill="#2e2f42" style="fill: var(--color1, #2e2f42)" d="M13.602 18.544l-2.143-2.133c-0.207-0.207-0.545-0.207-0.753 0l-2.142 2.133c-0.1 0.101-0.157 0.236-0.157 0.378s0.056 0.278 0.157 0.378l2.142 2.133c0.104 0.103 0.241 0.155 0.377 0.155s0.273-0.052 0.376-0.155l2.143-2.133c0.1-0.1 0.157-0.236 0.157-0.378s-0.057-0.278-0.157-0.378zM11.083 20.303l-1.387-1.381 1.387-1.381 1.387 1.381-1.387 1.381z"></path>
<path fill="#2e2f42" style="fill: var(--color1, #2e2f42)" d="M17.164 5.071l-0.258 1.036c0.071 0.018 1.738 0.452 1.738 2.149h1.067c-0-2.017-1.666-2.965-2.547-3.185z"></path>
<path fill="#2e2f42" style="fill: var(--color1, #2e2f42)" d="M19.711 9.322h-1.067v1.067h1.067v-1.067z"></path>
</symbol>
<symbol id="icon-diagram" viewBox="0 0 32 32">
<path fill="#4d5ae5" style="fill: var(--color3, #4d5ae5)" d="M14.925 14.965h1.066v4.798h-1.066v-4.797z"></path>
<path fill="#4d5ae5" style="fill: var(--color3, #4d5ae5)" d="M19.19 17.097h1.066v2.665h-1.066v-2.665z"></path>
<path fill="#4d5ae5" style="fill: var(--color3, #4d5ae5)" d="M10.661 18.696h1.066v1.066h-1.066v-1.066z"></path>
<path fill="#4d5ae5" style="fill: var(--color3, #4d5ae5)" d="M7.463 18.163h1.066v1.599h-1.066v-1.599z"></path>
<path fill="#2e2f42" style="fill: var(--color1, #2e2f42)" d="M1.599 28.291h25.587c0.883 0 1.599-0.716 1.599-1.599v-2.132c0-0.883-0.716-1.599-1.599-1.599h-0.533v-13.293l3.028-2.868c0.703 0.346 1.553 0.136 2.013-0.499s0.396-1.508-0.152-2.068-1.42-0.644-2.065-0.198c-0.644 0.446-0.873 1.292-0.542 2.002l-2.281 2.163v-1.23c0-0.883-0.716-1.599-1.599-1.599h-21.322c-0.883 0-1.599 0.716-1.599 1.599v15.992h-0.533c-0.883 0-1.599 0.716-1.599 1.599v2.132c0 0.883 0.716 1.599 1.599 1.599zM30.384 4.837c0.294 0 0.533 0.239 0.533 0.533s-0.239 0.533-0.533 0.533c-0.294 0-0.533-0.239-0.533-0.533s0.239-0.533 0.533-0.533zM3.198 6.969c0-0.294 0.239-0.533 0.533-0.533h21.322c0.294 0 0.533 0.239 0.533 0.533v2.239l-1.066 1.013v-2.186c0-0.294-0.239-0.533-0.533-0.533h-19.19c-0.294 0-0.533 0.239-0.533 0.533v13.326c0 0.294 0.239 0.533 0.533 0.533h19.19c0.294 0 0.533-0.239 0.533-0.533v-9.674l1.066-1.010v12.284h-22.388v-15.992zM7.996 13.899c-0.721-0.002-1.354 0.478-1.546 1.174s0.105 1.433 0.725 1.801c0.62 0.368 1.41 0.276 1.928-0.226l1.853 0.93c0.215 0.108 0.476 0.057 0.636-0.123l3.939-4.431 3.872 2.901c0.208 0.156 0.498 0.139 0.686-0.039l3.365-3.188v8.131h-18.124v-12.26h18.124v2.66l-3.771 3.572-3.904-2.927c-0.222-0.166-0.534-0.135-0.718 0.072l-3.993 4.493-1.493-0.746c0.011-0.064 0.018-0.129 0.020-0.193 0-0.883-0.716-1.599-1.599-1.599zM8.529 15.498c0 0.294-0.239 0.533-0.533 0.533s-0.533-0.239-0.533-0.533c0-0.294 0.239-0.533 0.533-0.533s0.533 0.239 0.533 0.533zM11.727 24.027h5.331v0.533c0 0.294-0.239 0.533-0.533 0.533h-4.264c-0.294 0-0.533-0.239-0.533-0.533v-0.533zM1.066 24.56c0-0.294 0.239-0.533 0.533-0.533h9.062v0.533c0 0.883 0.716 1.599 1.599 1.599h4.264c0.883 0 1.599-0.716 1.599-1.599v-0.533h9.062c0.294 0 0.533 0.239 0.533 0.533v2.132c0 0.294-0.239 0.533-0.533 0.533h-25.587c-0.294 0-0.533-0.239-0.533-0.533v-2.132z"></path>
</symbol>
<symbol id="icon-clock" viewBox="0 0 32 32">
<path fill="#2e2f42" style="fill: var(--color1, #2e2f42)" d="M31.297 15.301c-0.002-8.452-6.855-15.303-15.308-15.301s-15.303 6.855-15.301 15.308c0.001 6.658 4.307 12.551 10.649 14.576 0.061 0.019 0.124 0.029 0.187 0.029 0.121-0 0.239-0.032 0.342-0.094 0.135-0.080 0.236-0.207 0.283-0.356l3.865-12.25c1.057-0.005 1.909-0.866 1.903-1.923s-0.866-1.909-1.923-1.903c-0.284 0.001-0.565 0.067-0.82 0.191l-5.106-5.107c-0.253-0.245-0.657-0.238-0.902 0.016-0.239 0.247-0.239 0.639 0 0.886l5.103 5.109c-0.392 0.799-0.168 1.764 0.536 2.309l-3.683 11.673c-7.278-2.681-11.004-10.754-8.323-18.032s10.754-11.004 18.032-8.323c7.278 2.681 11.004 10.754 8.323 18.032-1.31 3.556-4.001 6.431-7.462 7.973l-0.398-1.874c-0.073-0.345-0.411-0.565-0.756-0.492-0.109 0.023-0.209 0.074-0.293 0.148l-3.837 3.426c-0.263 0.234-0.287 0.637-0.052 0.9 0.076 0.085 0.174 0.149 0.283 0.184l4.899 1.564c0.335 0.108 0.694-0.077 0.802-0.412 0.034-0.106 0.040-0.219 0.017-0.328l-0.391-1.839c5.664-2.388 9.342-7.942 9.329-14.089zM15.992 14.664c0.352 0 0.638 0.286 0.638 0.638s-0.286 0.638-0.638 0.638c-0.352 0-0.638-0.285-0.638-0.638s0.285-0.638 0.638-0.638zM18.093 29.528l2.184-1.948 0.603 2.84-2.787-0.892z"></path>
<path fill="#4d5ae5" style="fill: var(--color3, #4d5ae5)" d="M15.354 3.185v1.275c0 0.352 0.285 0.638 0.638 0.638s0.638-0.285 0.638-0.638v-1.275c0-0.352-0.286-0.638-0.638-0.638s-0.638 0.286-0.638 0.638z"></path>
<path fill="#4d5ae5" style="fill: var(--color3, #4d5ae5)" d="M3.876 14.664c-0.352 0-0.638 0.286-0.638 0.638s0.285 0.638 0.638 0.638h1.275c0.352 0 0.638-0.285 0.638-0.638s-0.285-0.638-0.638-0.638h-1.275z"></path>
<path fill="#4d5ae5" style="fill: var(--color3, #4d5ae5)" d="M28.108 15.939c0.352 0 0.638-0.285 0.638-0.638s-0.285-0.638-0.638-0.638h-1.275c-0.352 0-0.638 0.286-0.638 0.638s0.286 0.638 0.638 0.638h1.275z"></path>
</symbol>
<symbol id="icon-antenna" viewBox="0 0 32 32">
<path fill="#2e2f42" style="fill: var(--color1, #2e2f42)" d="M30.773 22.098l-8.443-8.505 0.937-4.615c0.242 0.094 0.499 0.144 0.758 0.146h0.006c1.192 0.014 2.17-0.941 2.184-2.133s-0.941-2.17-2.133-2.184c-1.192-0.014-2.17 0.941-2.184 2.133-0.003 0.255 0.039 0.509 0.125 0.749l-4.96 0.605-8.091-8.133c-0.099-0.101-0.235-0.159-0.377-0.16-0.14 0.001-0.274 0.056-0.373 0.155l-1.513 1.504c-0.208 0.208-0.208 0.546 0 0.754l0.814 0.826c-3.153 5.798-2.129 12.978 2.519 17.663 0.043 0.041 0.092 0.074 0.146 0.098-0.034 0.18-0.051 0.364-0.052 0.547v6.187h-6.4c-1.472 0.002-2.665 1.195-2.667 2.667v1.067c0 0.295 0.239 0.533 0.533 0.533h24.533c0.295 0 0.533-0.239 0.533-0.533v-1.067c-0.002-1.472-1.195-2.665-2.667-2.667h-6.4v-2.742c1.003 0.21 2.024 0.317 3.049 0.32 2.458-0.003 4.877-0.615 7.040-1.783l0.818 0.823c0.099 0.101 0.235 0.159 0.377 0.16 0.14-0.001 0.274-0.056 0.373-0.155l1.513-1.504c0.208-0.208 0.208-0.546 0-0.754zM23.28 6.233c0.418-0.415 1.093-0.414 1.509 0.004s0.414 1.093-0.004 1.508c-0.2 0.199-0.47 0.31-0.752 0.31h-0.003c-0.589-0.003-1.064-0.483-1.061-1.072 0.002-0.282 0.115-0.552 0.314-0.751h-0.002zM22.024 9.738l-0.598 2.946-1.175-1.182 1.774-1.763zM21.419 8.836l-1.92 1.909-1.485-1.493 3.405-0.415zM24.004 28.8c0.884 0 1.6 0.716 1.6 1.6v0.533h-23.467v-0.533c0-0.884 0.716-1.6 1.6-1.6h20.267zM16.537 26.667v1.067h-5.333v-1.067h5.333zM11.204 25.6v-4.053c0-1.294 1.196-2.347 2.667-2.347s2.667 1.053 2.667 2.347v4.053h-5.333zM17.604 23.904v-2.357c0-1.882-1.675-3.413-3.733-3.413-1.331-0.020-2.576 0.657-3.281 1.786-4.058-4.274-4.971-10.645-2.279-15.887l18.602 18.708c-2.872 1.461-6.165 1.873-9.309 1.163zM28.893 23.22l-21.057-21.181 0.755-0.752 7.935 7.98c0.004 0 0.006 0.007 0.010 0.010l13.115 13.191-0.757 0.752z"></path>
<path fill="#4d5ae5" style="fill: var(--color3, #4d5ae5)" d="M13.876 20.267h-0.005c-0.884-0.001-1.601 0.714-1.602 1.598s0.714 1.601 1.598 1.602h0.005c0.884 0.001 1.601-0.714 1.602-1.598s-0.714-1.601-1.598-1.602zM14.249 22.245c-0.1 0.1-0.236 0.156-0.378 0.155-0.295-0.002-0.532-0.242-0.531-0.536 0.001-0.141 0.057-0.276 0.157-0.375s0.233-0.154 0.373-0.155c0.295 0.002 0.532 0.242 0.531 0.536-0.001 0.141-0.057 0.276-0.157 0.375h0.005z"></path>
</symbol>
<symbol id="icon-icons" viewBox="0 0 752 32">
<path fill="#4d5ae5" style="fill: var(--color3, #4d5ae5)" d="M13.876 20.267h-0.005c-0.884-0.001-1.601 0.714-1.602 1.598s0.714 1.601 1.598 1.602h0.005c0.884 0.001 1.601-0.714 1.602-1.598s-0.714-1.601-1.598-1.602zM14.249 22.245c-0.1 0.1-0.236 0.156-0.378 0.155-0.295-0.002-0.532-0.242-0.531-0.536 0.001-0.141 0.057-0.276 0.157-0.375s0.233-0.154 0.373-0.155c0.295 0.002 0.532 0.242 0.531 0.536-0.001 0.141-0.057 0.276-0.157 0.375h0.005z"></path>
</symbol>
</defs>
</svg>
